{
  "title": "Everest 2015 HD-TS XVID AC3 HQ Hive-CM8",
  "uid": 12462052,
  "size": 1646509232,
  "categoryP": "video",
  "categoryS": "movies",
  "magnet": "?xt=urn:btih:2dfecc94836ffe4093119939164199c052e038cf&amp;dn=Everest+2015+HD-TS+XVID+AC3+HQ+Hive-CM8&amp;tr=udp%3A%2F%2Ftracker.openbittorrent.com%3A80&amp;tr=udp%3A%2F%2Fopen.demonii.com%3A1337&amp;tr=udp%3A%2F%2Ftracker.coppersurfer.tk%3A6969&amp;tr=udp%3A%2F%2Fexodus.desync.com%3A6969",
  "seeders": 44,
  "leechers": 16,
  "uploader": "SS132203",
  "files": 4,
  "time": 1442814602,
  "description": "Everest 2015 HD-TS XVID AC3 HQ Hive-CM8\n &lt;a href=&quot;\nhttp://imgsparrow.co/image/8cr&quot; rel=&quot;nofollow&quot; target=&quot;_NEW&quot;&gt;\nhttp://imgsparrow.co/image/8cr&lt;/a&gt;\n &lt;a href=&quot;\nhttp://imgsparrow.co/image/9b&quot; rel=&quot;nofollow&quot; target=&quot;_NEW&quot;&gt;\nhttp://imgsparrow.co/image/9b&lt;/a&gt;\n\nInfo : - \n\nThank CM8 Not Me!\n\nEverest.2015.HD-TS.XVID.AC3.HQ.Hive-CM8\n\nThx Hive\n\nCM8 Doing It Right The First Time\n\nSources:\n\nVideo: Latino HDCAM\n\nAudio: Sweet Line Big Thx to S4NDM4N\nthx\n\nNotes:\n\nHot day 2 release and first on the net, video and audio is amazing\n\nEncode:\n\nVideo was very good to begin with still fixed ar and perspective,brightness,constrast,rgb and added sharpness\nAudio is very nice direct line, lipsynced to my video\nas far as the rating goes id say Video 8.5/10 and Audio 10/10\n\ngot very nice\nwill do me till retail\nenjoy only in imax or here, lol\n\nVideo: 720x340 @bitrate 1700 2pass\nAudio: English Direct Line 2.0 Stereo\nSample: yes included\n\n &lt;a href=&quot;\nhttp://www.imdb.com/title/tt2719848/&quot; rel=&quot;nofollow&quot; target=&quot;_NEW&quot;&gt;\nhttp://www.imdb.com/title/tt2719848/&lt;/a&gt;\n\n\nGeneral\nComplete name                  : Everest.2015.HD-TS.XVID.AC3.HQ.Hive-CM8.avi\nFormat                         : AVI\nFormat/Info                    : Audio Video Interleave\nFile size                      : 1.51 GiB\nDuration                       : 1h 49mn\nOverall bit rate               : 1 980 Kbps\nWriting application            : Nandub v1.0rc2\nWriting library                : Nandub build 1853/release\n\nVideo\nID                             : 0\nFormat                         : MPEG-4 Visual\nFormat profile                 : Advanced Simple@L5\nFormat settings, BVOP          : 2\nFormat settings, QPel          : Yes\nFormat settings, GMC           : No warppoints\nFormat settings, Matrix        : Default (H.263)\nMuxing mode                    : Packed bitstream\nCodec ID                       : XVID\nCodec ID/Hint                  : XviD\nDuration                       : 1h 49mn\nBit rate                       : 1 712 Kbps\nWidth                          : 720 pixels\nHeight                         : 340 pixels\nDisplay aspect ratio           : 2.118\nFrame rate                     : 29.970 fps\nColor space                    : YUV\nChroma subsampling             : 4:2:0\nBit depth                      : 8 bits\nScan type                      : Progressive\nCompression mode               : Lossy\nBits/(Pixel*Frame)             : 0.233\nStream size                    : 1.31 GiB (86%)\nWriting library                : XviD 1.2.1 (UTC 2008-12-04)\n\nAudio\nID                             : 1\nFormat                         : AC-3\nFormat/Info                    : Audio Coding 3\nMode extension                 : CM (complete main)\nFormat settings, Endianness    : Big\nCodec ID                       : 2000\nDuration                       : 1h 49mn\nBit rate mode                  : Constant\nBit rate                       : 256 Kbps\nChannel(s)                     : 2 channels\nChannel positions              : Front: L R\nSampling rate                  : 48.0 KHz\nBit depth                      : 16 bits\nCompression mode               : Lossy\nStream size                    : 200 MiB (13%)\nAlignment                      : Split accross interleaves\nInterleave, duration           : 33 ms (1.00 video frame)\nInterleave, preload duration   : 500 ms\n\nScreens : -\n &lt;a href=&quot;\nhttp://imgsparrow.co/image/8cD&quot; rel=&quot;nofollow&quot; target=&quot;_NEW&quot;&gt;\nhttp://imgsparrow.co/image/8cD&lt;/a&gt; &lt;a href=&quot;\nhttp://imgsparrow.co/image/8cG&quot; rel=&quot;nofollow&quot; target=&quot;_NEW&quot;&gt;\nhttp://imgsparrow.co/image/8cG&lt;/a&gt; &lt;a href=&quot;\nhttp://imgsparrow.co/image/8ce&quot; rel=&quot;nofollow&quot; target=&quot;_NEW&quot;&gt;\nhttp://imgsparrow.co/image/8ce&lt;/a&gt; &lt;a href=&quot;\nhttp://imgsparrow.co/image/8cg&quot; rel=&quot;nofollow&quot; target=&quot;_NEW&quot;&gt;\nhttp://imgsparrow.co/image/8cg&lt;/a&gt; &lt;a href=&quot;\nhttp://imgsparrow.co/image/8cq&quot; rel=&quot;nofollow&quot; target=&quot;_NEW&quot;&gt;\nhttp://imgsparrow.co/image/8cq&lt;/a&gt; &lt;a href=&quot;\nhttp://imgsparrow.co/image/8cz&quot; rel=&quot;nofollow&quot; target=&quot;_NEW&quot;&gt;\nhttp://imgsparrow.co/image/8cz&lt;/a&gt; &lt;a href=&quot;\nhttp://imgsparrow.co/image/8c7&quot; rel=&quot;nofollow&quot; target=&quot;_NEW&quot;&gt;\nhttp://imgsparrow.co/image/8c7&lt;/a&gt; &lt;a href=&quot;\nhttp://imgsparrow.co/image/8ck&quot; rel=&quot;nofollow&quot; target=&quot;_NEW&quot;&gt;\nhttp://imgsparrow.co/image/8ck&lt;/a&gt;\n &lt;a href=&quot;\nhttp://imgsparrow.co/image/8nG&quot; rel=&quot;nofollow&quot; target=&quot;_NEW&quot;&gt;\nhttp://imgsparrow.co/image/8nG&lt;/a&gt;",
  "parsed": {
    "xt": "urn:btih:2dfecc94836ffe4093119939164199c052e038cf",
    "dn": "Everest 2015 HD-TS XVID AC3 HQ Hive-CM8",
    "tr": [
      "udp://exodus.desync.com:6969",
      "udp://open.demonii.com:1337",
      "udp://tracker.coppersurfer.tk:6969",
      "udp://tracker.openbittorrent.com:80"
    ],
    "infoHash": "2dfecc94836ffe4093119939164199c052e038cf",
    "infoHashBuffer": {
      "type": "Buffer",
      "data": [
        45,
        254,
        204,
        148,
        131,
        111,
        254,
        64,
        147,
        17,
        153,
        57,
        22,
        65,
        153,
        192,
        82,
        224,
        56,
        207
      ]
    },
    "name": "Everest 2015 HD-TS XVID AC3 HQ Hive-CM8",
    "announce": [
      "udp://exodus.desync.com:6969",
      "udp://open.demonii.com:1337",
      "udp://tracker.coppersurfer.tk:6969",
      "udp://tracker.openbittorrent.com:80"
    ],
    "urlList": []
  },
  "previous": 60,
  "peers": 14,
  "last_updated": "2016-12-24T21:06:48.399Z"
}